# xmcd
#
# Track frame offsets:
#	150
#	17204
#	32098
#	49186
#	62997
#	80258
#	95812
#	106992
#	125138
#	143604
#	158529
#
# Disc length: 2298 seconds
#
# Revision: 1
# Processed by: cddbd v1.5.2PL0 Copyright (c) Steve Scherf et al.
# Submitted via: audiograbber 1.83.01
#
DISCID=9108f80b
DTITLE=Kareem Salama - This Life of Mine
DYEAR=2007
DGENRE=Country
TTITLE0=01 -- This Life of Mine
TTITLE1=02 -- Generous Peace
TTITLE2=03 -- More Than
TTITLE3=04 -- I Miss You (Hopefully)
TTITLE4=05 -- Rise Up Protectors
TTITLE5=06 -- My Tears Aren't Pure
TTITLE6=07 -- It Came to Be
TTITLE7=08 -- A Friend Like You
TTITLE8=09 -- Get Busy Living (Acoustic)
TTITLE9=10 -- My Way Home
TTITLE10=11 -- Aristotle And Averroes
EXTD=Muslim - Islamic Country and Western
EXTT0=
EXTT1=
EXTT2=
EXTT3=
EXTT4=
EXTT5=
EXTT6=
EXTT7=
EXTT8=
EXTT9=
EXTT10=
PLAYORDER=
